<svg width="150" height="160" viewBox="0 0 150 160" fill="none" xmlns="http://www.w3.org/2000/svg">
<rect width="150" height="160" rx="30" fill="#D9D9D9"/>
<path d="M32.1533 88C31.9666 88 31.8133 87.94 31.6933 87.82C31.5866 87.7 31.5333 87.56 31.5333 87.4V74.66H32.7733V87.4C32.7733 87.56 32.7133 87.7 32.5933 87.82C32.4733 87.94 32.3266 88 32.1533 88ZM27.3933 75.14C27.2333 75.14 27.0933 75.0867 26.9733 74.98C26.8533 74.8733 26.7933 74.7333 26.7933 74.56C26.7933 74.4 26.8533 74.2667 26.9733 74.16C27.0933 74.0533 27.2333 74 27.3933 74H36.9133C37.0733 74 37.2133 74.0533 37.3333 74.16C37.4533 74.2667 37.5133 74.4067 37.5133 74.58C37.5133 74.7533 37.4533 74.8933 37.3333 75C37.2133 75.0933 37.0733 75.14 36.9133 75.14H27.3933ZM44.4236 77.7C45.2636 77.7 45.9436 77.88 46.4636 78.24C46.9836 78.6 47.3636 79.0867 47.6036 79.7C47.8569 80.3133 47.9836 80.9933 47.9836 81.74V87.4C47.9836 87.56 47.9236 87.7 47.8036 87.82C47.6836 87.94 47.5436 88 47.3836 88C47.1969 88 47.0503 87.94 46.9436 87.82C46.8369 87.7 46.7836 87.56 46.7836 87.4V81.74C46.7836 81.1933 46.6969 80.7 46.5236 80.26C46.3636 79.82 46.0969 79.4733 45.7236 79.22C45.3503 78.9533 44.8503 78.82 44.2236 78.82C43.6636 78.82 43.1303 78.9533 42.6236 79.22C42.1303 79.4733 41.7303 79.82 41.4236 80.26C41.1169 80.7 40.9636 81.1933 40.9636 81.74V87.4C40.9636 87.56 40.9036 87.7 40.7836 87.82C40.6636 87.94 40.5236 88 40.3636 88C40.1769 88 40.0303 87.94 39.9236 87.82C39.8169 87.7 39.7636 87.56 39.7636 87.4V73.8C39.7636 73.64 39.8169 73.5 39.9236 73.38C40.0436 73.26 40.1903 73.2 40.3636 73.2C40.5369 73.2 40.6769 73.26 40.7836 73.38C40.9036 73.5 40.9636 73.64 40.9636 73.8V80.28L40.5036 80.98C40.5303 80.5667 40.6569 80.1667 40.8836 79.78C41.1236 79.38 41.4303 79.0267 41.8036 78.72C42.1769 78.4 42.5903 78.1533 43.0436 77.98C43.4969 77.7933 43.9569 77.7 44.4236 77.7ZM58.7708 77.84C58.9441 77.84 59.0841 77.9 59.1908 78.02C59.3108 78.14 59.3708 78.28 59.3708 78.44V84.08C59.3708 85.4 58.9974 86.4067 58.2508 87.1C57.5041 87.7933 56.4974 88.14 55.2308 88.14C53.9774 88.14 52.9774 87.7933 52.2308 87.1C51.4974 86.4067 51.1308 85.4 51.1308 84.08V78.44C51.1308 78.28 51.1841 78.14 51.2908 78.02C51.4108 77.9 51.5574 77.84 51.7308 77.84C51.9041 77.84 52.0441 77.9 52.1508 78.02C52.2708 78.14 52.3308 78.28 52.3308 78.44V84.08C52.3308 85.04 52.5841 85.7733 53.0908 86.28C53.6108 86.7733 54.3241 87.02 55.2308 87.02C56.1508 87.02 56.8708 86.7733 57.3908 86.28C57.9108 85.7733 58.1708 85.04 58.1708 84.08V78.44C58.1708 78.28 58.2241 78.14 58.3308 78.02C58.4374 77.9 58.5841 77.84 58.7708 77.84ZM67.1175 77.7C67.9442 77.7 68.6508 77.92 69.2375 78.36C69.8242 78.7867 70.2242 79.4267 70.4375 80.28L70.1575 80.36L70.2775 80C70.4508 79.6 70.7375 79.2267 71.1375 78.88C71.5508 78.52 72.0175 78.2333 72.5375 78.02C73.0575 77.8067 73.5842 77.7 74.1175 77.7C74.9575 77.7 75.6308 77.88 76.1375 78.24C76.6575 78.6 77.0308 79.0867 77.2575 79.7C77.4975 80.3 77.6175 80.98 77.6175 81.74V87.4C77.6175 87.56 77.5575 87.7 77.4375 87.82C77.3308 87.94 77.1908 88 77.0175 88C76.8442 88 76.6975 87.94 76.5775 87.82C76.4708 87.7 76.4175 87.56 76.4175 87.4V81.8C76.4175 81.2533 76.3308 80.7533 76.1575 80.3C75.9842 79.8467 75.7108 79.4867 75.3375 79.22C74.9642 78.9533 74.4642 78.82 73.8375 78.82C73.2908 78.82 72.7642 78.9533 72.2575 79.22C71.7642 79.4867 71.3575 79.8467 71.0375 80.3C70.7308 80.7533 70.5775 81.2533 70.5775 81.8V87.4C70.5775 87.56 70.5175 87.7 70.3975 87.82C70.2908 87.94 70.1508 88 69.9775 88C69.8042 88 69.6575 87.94 69.5375 87.82C69.4308 87.7 69.3775 87.56 69.3775 87.4V81.74C69.3775 81.1933 69.2975 80.7 69.1375 80.26C68.9775 79.82 68.7175 79.4733 68.3575 79.22C67.9975 78.9533 67.5108 78.82 66.8975 78.82C66.3508 78.82 65.8308 78.9533 65.3375 79.22C64.8575 79.4733 64.4642 79.82 64.1575 80.26C63.8642 80.7 63.7175 81.1933 63.7175 81.74V87.4C63.7175 87.56 63.6575 87.7 63.5375 87.82C63.4175 87.94 63.2775 88 63.1175 88C62.9308 88 62.7842 87.94 62.6775 87.82C62.5708 87.7 62.5175 87.56 62.5175 87.4V78.44C62.5175 78.28 62.5708 78.14 62.6775 78.02C62.7975 77.9 62.9442 77.84 63.1175 77.84C63.2908 77.84 63.4308 77.9 63.5375 78.02C63.6575 78.14 63.7175 78.28 63.7175 78.44V80.3L63.1775 81.04C63.2175 80.64 63.3442 80.24 63.5575 79.84C63.7842 79.44 64.0775 79.08 64.4375 78.76C64.7975 78.44 65.2042 78.1867 65.6575 78C66.1242 77.8 66.6108 77.7 67.1175 77.7ZM85.6197 77.54C86.5264 77.54 87.3264 77.7667 88.0197 78.22C88.7264 78.6733 89.2864 79.3 89.6997 80.1C90.113 80.8867 90.3197 81.8 90.3197 82.84C90.3197 83.8533 90.113 84.7667 89.6997 85.58C89.2864 86.3933 88.7264 87.0333 88.0197 87.5C87.313 87.9667 86.5197 88.2 85.6397 88.2C85.173 88.2 84.7264 88.1267 84.2997 87.98C83.8864 87.8333 83.5064 87.64 83.1597 87.4C82.813 87.1467 82.5064 86.8533 82.2397 86.52C81.973 86.1867 81.7597 85.8267 81.5997 85.44L81.9597 85.18V87.44C81.9597 87.6133 81.8997 87.76 81.7797 87.88C81.673 87.9867 81.533 88.04 81.3597 88.04C81.1864 88.04 81.0397 87.9867 80.9197 87.88C80.813 87.76 80.7597 87.6133 80.7597 87.44V73.82C80.7597 73.6467 80.813 73.5067 80.9197 73.4C81.0264 73.28 81.173 73.22 81.3597 73.22C81.533 73.22 81.673 73.28 81.7797 73.4C81.8997 73.5067 81.9597 73.6467 81.9597 73.82V80.52L81.6797 80.36C81.813 79.9467 82.0064 79.5733 82.2597 79.24C82.5264 78.8933 82.833 78.5933 83.1797 78.34C83.5264 78.0867 83.9064 77.8933 84.3197 77.76C84.733 77.6133 85.1664 77.54 85.6197 77.54ZM85.5197 78.66C84.7997 78.66 84.1664 78.84 83.6197 79.2C83.073 79.56 82.6397 80.0533 82.3197 80.68C82.013 81.3067 81.8597 82.0267 81.8597 82.84C81.8597 83.64 82.013 84.3667 82.3197 85.02C82.6397 85.66 83.073 86.1667 83.6197 86.54C84.1664 86.9 84.7997 87.08 85.5197 87.08C86.2264 87.08 86.8464 86.8933 87.3797 86.52C87.9264 86.1467 88.3597 85.64 88.6797 85C88.9997 84.3467 89.1597 83.6267 89.1597 82.84C89.1597 82.0267 88.9997 81.3067 88.6797 80.68C88.3597 80.0533 87.9264 79.56 87.3797 79.2C86.8464 78.84 86.2264 78.66 85.5197 78.66ZM97.7086 77.54C98.5886 77.54 99.2886 77.72 99.8086 78.08C100.342 78.4267 100.722 78.9067 100.949 79.52C101.189 80.12 101.309 80.7867 101.309 81.52V87.4C101.309 87.56 101.249 87.7 101.129 87.82C101.009 87.94 100.869 88 100.709 88C100.522 88 100.375 87.94 100.269 87.82C100.162 87.7 100.109 87.56 100.109 87.4V81.58C100.109 81.0467 100.022 80.56 99.8486 80.12C99.6753 79.68 99.3886 79.3267 98.9886 79.06C98.6019 78.7933 98.0886 78.66 97.4486 78.66C96.8753 78.66 96.3286 78.7933 95.8086 79.06C95.3019 79.3267 94.8886 79.68 94.5686 80.12C94.2486 80.56 94.0886 81.0467 94.0886 81.58V87.4C94.0886 87.56 94.0286 87.7 93.9086 87.82C93.7886 87.94 93.6486 88 93.4886 88C93.3019 88 93.1553 87.94 93.0486 87.82C92.9419 87.7 92.8886 87.56 92.8886 87.4V78.44C92.8886 78.28 92.9419 78.14 93.0486 78.02C93.1686 77.9 93.3153 77.84 93.4886 77.84C93.6619 77.84 93.8019 77.9 93.9086 78.02C94.0286 78.14 94.0886 78.28 94.0886 78.44V80.12L93.6286 80.84C93.6553 80.4133 93.7886 80.0067 94.0286 79.62C94.2819 79.22 94.6019 78.8667 94.9886 78.56C95.3753 78.24 95.8019 77.9933 96.2686 77.82C96.7486 77.6333 97.2286 77.54 97.7086 77.54ZM112.831 77.78C113.004 77.78 113.144 77.84 113.251 77.96C113.371 78.08 113.431 78.2267 113.431 78.4V87.4C113.431 87.56 113.371 87.7 113.251 87.82C113.131 87.94 112.991 88 112.831 88C112.658 88 112.511 87.94 112.391 87.82C112.284 87.7 112.231 87.56 112.231 87.4V85.02L112.571 84.86C112.571 85.2333 112.464 85.6133 112.251 86C112.051 86.3867 111.771 86.7467 111.411 87.08C111.051 87.4133 110.624 87.6867 110.131 87.9C109.651 88.1 109.131 88.2 108.571 88.2C107.664 88.2 106.851 87.9667 106.131 87.5C105.424 87.0333 104.864 86.3933 104.451 85.58C104.051 84.7667 103.851 83.8533 103.851 82.84C103.851 81.8 104.058 80.8867 104.471 80.1C104.884 79.3 105.444 78.6733 106.151 78.22C106.858 77.7667 107.658 77.54 108.551 77.54C109.124 77.54 109.658 77.64 110.151 77.84C110.658 78.04 111.098 78.3133 111.471 78.66C111.844 79.0067 112.131 79.4067 112.331 79.86C112.544 80.3 112.651 80.76 112.651 81.24L112.231 80.94V78.4C112.231 78.2267 112.284 78.08 112.391 77.96C112.511 77.84 112.658 77.78 112.831 77.78ZM108.671 87.08C109.378 87.08 110.004 86.9 110.551 86.54C111.098 86.1667 111.524 85.66 111.831 85.02C112.151 84.3667 112.311 83.64 112.311 82.84C112.311 82.0533 112.151 81.3467 111.831 80.72C111.524 80.0933 111.098 79.5933 110.551 79.22C110.004 78.8467 109.378 78.66 108.671 78.66C107.978 78.66 107.351 78.84 106.791 79.2C106.244 79.56 105.811 80.0533 105.491 80.68C105.184 81.3067 105.031 82.0267 105.031 82.84C105.031 83.64 105.184 84.3667 105.491 85.02C105.811 85.66 106.244 86.1667 106.791 86.54C107.338 86.9 107.964 87.08 108.671 87.08ZM117.74 87.4C117.74 87.56 117.68 87.7 117.56 87.82C117.44 87.94 117.3 88 117.14 88C116.967 88 116.82 87.94 116.7 87.82C116.593 87.7 116.54 87.56 116.54 87.4V78.2C116.54 78.04 116.593 77.9 116.7 77.78C116.82 77.66 116.967 77.6 117.14 77.6C117.313 77.6 117.453 77.66 117.56 77.78C117.68 77.9 117.74 78.04 117.74 78.2V87.4ZM117.14 76.26C116.86 76.26 116.647 76.2 116.5 76.08C116.367 75.9467 116.3 75.76 116.3 75.52V75.32C116.3 75.08 116.373 74.9 116.52 74.78C116.68 74.6467 116.893 74.58 117.16 74.58C117.413 74.58 117.607 74.6467 117.74 74.78C117.887 74.9 117.96 75.08 117.96 75.32V75.52C117.96 75.76 117.887 75.9467 117.74 76.08C117.607 76.2 117.407 76.26 117.14 76.26ZM122.177 87.4C122.177 87.56 122.117 87.7 121.997 87.82C121.877 87.94 121.737 88 121.577 88C121.404 88 121.257 87.94 121.137 87.82C121.031 87.7 120.977 87.56 120.977 87.4V73.8C120.977 73.64 121.037 73.5 121.157 73.38C121.277 73.26 121.417 73.2 121.577 73.2C121.751 73.2 121.891 73.26 121.997 73.38C122.117 73.5 122.177 73.64 122.177 73.8V87.4Z" fill="black"/>
</svg>
