<svg width="92" height="92" viewBox="0 0 92 92" fill="none" xmlns="http://www.w3.org/2000/svg">
<g filter="url(#filter0_di_3452_3235)">
<g filter="url(#filter1_d_3452_3235)">
<mask id="path-1-inside-1_3452_3235" fill="white">
<path d="M5.67969 43.2798C5.67969 21.1884 23.5883 3.27979 45.6797 3.27979C67.7711 3.27979 85.6797 21.1884 85.6797 43.2798C85.6797 65.3712 67.7711 83.2798 45.6797 83.2798C23.5883 83.2798 5.67969 65.3712 5.67969 43.2798Z"/>
</mask>
<path d="M5.67969 43.2798C5.67969 21.1884 23.5883 3.27979 45.6797 3.27979C67.7711 3.27979 85.6797 21.1884 85.6797 43.2798C85.6797 65.3712 67.7711 83.2798 45.6797 83.2798C23.5883 83.2798 5.67969 65.3712 5.67969 43.2798Z" fill="#EEB5CD"/>
<path d="M5.67969 3.27979H85.6797H5.67969ZM85.6797 49.2798C85.6797 71.3712 67.7711 89.2798 45.6797 89.2798C23.5883 89.2798 5.67969 71.3712 5.67969 49.2798V43.2798C5.67969 62.0575 23.5883 77.2798 45.6797 77.2798C67.7711 77.2798 85.6797 62.0575 85.6797 43.2798V49.2798ZM5.67969 83.2798V3.27979V83.2798ZM85.6797 3.27979V83.2798V3.27979Z" fill="white" mask="url(#path-1-inside-1_3452_3235)"/>
</g>
<path d="M45.1367 54.3228C45.5606 54.3228 45.9709 54.481 46.291 54.769C46.585 55.0858 46.7529 55.5064 46.7529 55.9478C46.7528 56.3927 46.5817 56.8157 46.2832 57.1333C45.9622 57.4361 45.5456 57.6061 45.1123 57.6128C44.7982 57.6085 44.4908 57.5126 44.2275 57.3335C43.9598 57.1512 43.7484 56.8904 43.624 56.5835C43.4998 56.2767 43.4686 55.9387 43.5342 55.6128C43.5979 55.2964 43.749 55.0067 43.9688 54.7788C44.2907 54.4836 44.7074 54.3228 45.1367 54.3228ZM43.5029 42.5054L43.4961 42.4673V39.4019C43.5074 39.3218 43.5233 39.2421 43.5459 39.1646L43.5908 39.0103L43.6055 38.8501C43.6115 38.7841 43.6211 38.7185 43.6348 38.6538C43.6582 38.6195 43.6831 38.5856 43.709 38.5532L43.8086 38.4282L43.8838 38.2866C43.9154 38.2264 43.9508 38.1684 43.9893 38.1128C44.0349 38.0813 44.0824 38.0525 44.1309 38.0259L44.2715 37.9487L44.3945 37.8472C44.43 37.8177 44.4663 37.7895 44.5039 37.7632C44.5549 37.753 44.6065 37.7459 44.6582 37.7407L44.8271 37.7241L44.9893 37.6733C45.0776 37.6458 45.1683 37.6267 45.2598 37.6147C46.9726 37.581 48.6055 36.8825 49.8145 35.6616C51.0533 34.4106 51.746 32.7169 51.7461 30.9546C51.7461 29.1923 51.0532 27.4987 49.8145 26.2476C48.575 24.9959 46.8899 24.2896 45.1299 24.2896C43.9651 24.289 42.8214 24.5984 41.8145 25.1851C40.8073 25.7719 39.9727 26.6154 39.3936 27.6284C39.174 28.0125 38.8153 28.2885 38.4004 28.4009C37.986 28.5131 37.5438 28.4547 37.1699 28.2368C36.7954 28.0186 36.5169 27.6561 36.4023 27.2251C36.2878 26.7936 36.3485 26.3335 36.5684 25.9487L36.5693 25.9478C37.6583 24.0384 39.3387 22.5483 41.3477 21.7065C43.3565 20.8649 45.5837 20.7176 47.6836 21.2856C49.7836 21.8538 51.6421 23.1074 52.9688 24.855C54.295 26.602 55.0151 28.7442 55.0137 30.9497C55.0073 33.0974 54.3147 35.1841 53.042 36.8999C51.7694 38.6154 49.9852 39.8682 47.9561 40.4751L46.7637 40.8315L46.7676 42.0767L46.7734 44.2827C46.7736 44.5029 46.7311 44.7206 46.6484 44.9233C46.5655 45.1267 46.4441 45.3111 46.292 45.4653C46.1398 45.6196 45.9596 45.7419 45.7627 45.8247C45.566 45.9074 45.3556 45.9492 45.1436 45.9497H45.1367C44.7093 45.9497 44.2958 45.7792 43.9883 45.4692C43.7187 45.1976 43.5503 44.8383 43.5117 44.4536L43.5029 44.2876V42.5054Z" fill="white" stroke="white" stroke-width="3.33241"/>
<ellipse cx="23.7495" cy="16.8235" rx="8.12108" ry="2.79475" transform="rotate(-42.4535 23.7495 16.8235)" fill="white" fill-opacity="0.5"/>
<ellipse cx="15.1739" cy="28.8949" rx="2.49968" ry="2.63575" transform="rotate(-30.6531 15.1739 28.8949)" fill="white" fill-opacity="0.5"/>
<ellipse cx="68.5552" cy="62.592" rx="8.12108" ry="2.79475" transform="rotate(137.547 68.5552 62.592)" fill="white" fill-opacity="0.5"/>
<ellipse cx="76.7519" cy="49.8219" rx="2.49968" ry="2.63575" transform="rotate(149.347 76.7519 49.8219)" fill="white" fill-opacity="0.5"/>
</g>
<defs>
<filter id="filter0_di_3452_3235" x="2.47969" y="0.879785" width="86.4" height="88.8" filterUnits="userSpaceOnUse" color-interpolation-filters="sRGB">
<feFlood flood-opacity="0" result="BackgroundImageFix"/>
<feColorMatrix in="SourceAlpha" type="matrix" values="0 0 0 0 0 0 0 0 0 0 0 0 0 0 0 0 0 0 127 0" result="hardAlpha"/>
<feOffset dy="3.2"/>
<feGaussianBlur stdDeviation="1.6"/>
<feComposite in2="hardAlpha" operator="out"/>
<feColorMatrix type="matrix" values="0 0 0 0 0.858824 0 0 0 0 0.45098 0 0 0 0 0.588235 0 0 0 0.5 0"/>
<feBlend mode="normal" in2="BackgroundImageFix" result="effect1_dropShadow_3452_3235"/>
<feBlend mode="normal" in="SourceGraphic" in2="effect1_dropShadow_3452_3235" result="shape"/>
<feColorMatrix in="SourceAlpha" type="matrix" values="0 0 0 0 0 0 0 0 0 0 0 0 0 0 0 0 0 0 127 0" result="hardAlpha"/>
<feOffset dx="2.4" dy="-2.4"/>
<feGaussianBlur stdDeviation="5.96"/>
<feComposite in2="hardAlpha" operator="arithmetic" k2="-1" k3="1"/>
<feColorMatrix type="matrix" values="0 0 0 0 0.858824 0 0 0 0 0.45098 0 0 0 0 0.588235 0 0 0 0.5 0"/>
<feBlend mode="normal" in2="shape" result="effect2_innerShadow_3452_3235"/>
</filter>
<filter id="filter1_d_3452_3235" x="-0.000312328" y="-0.000214577" width="91.36" height="91.36" filterUnits="userSpaceOnUse" color-interpolation-filters="sRGB">
<feFlood flood-opacity="0" result="BackgroundImageFix"/>
<feColorMatrix in="SourceAlpha" type="matrix" values="0 0 0 0 0 0 0 0 0 0 0 0 0 0 0 0 0 0 127 0" result="hardAlpha"/>
<feOffset dy="2.4"/>
<feGaussianBlur stdDeviation="2.84"/>
<feComposite in2="hardAlpha" operator="out"/>
<feColorMatrix type="matrix" values="0 0 0 0 0.980392 0 0 0 0 0.752941 0 0 0 0 0.847059 0 0 0 0.5 0"/>
<feBlend mode="normal" in2="BackgroundImageFix" result="effect1_dropShadow_3452_3235"/>
<feBlend mode="normal" in="SourceGraphic" in2="effect1_dropShadow_3452_3235" result="shape"/>
</filter>
</defs>
</svg>
